<?xml version="1.0" encoding="UTF-8"?>
<svg id="Capa_2" data-name="Capa 2" xmlns="http://www.w3.org/2000/svg" viewBox="0 0 422 36">
  <defs>
    <style>
      .cls-1 {
        fill: #3d2114;
        fill-rule: evenodd;
        stroke-width: 0px;
      }
    </style>
  </defs>
  <g id="Capa_1-2" data-name="Capa 1">
    <g>
      <path class="cls-1" d="M200.63,24.74c.35-.76.64-1.52.85-2.25.19-.63.35-1.41.46-2.29.14-.92.2-1.67.21-2.28l.05-2.48h-6.73s-.13,7.09-.13,7.09l-5.41-6.28c1.24-.44,2.26-.98,3.07-1.62.84-.64,1.5-1.37,2.02-2.18.42-.67.71-1.41.91-2.25.19-.83.29-1.57.31-2.22.02-1.04-.17-1.99-.53-2.89-.38-.91-.93-1.67-1.65-2.3-.76-.65-1.69-1.16-2.79-1.56-1.12-.39-2.43-.58-3.96-.62-1.71-.03-3.21.19-4.52.67-1.3.45-2.31,1.03-3.04,1.75-.79.79-1.34,1.64-1.7,2.55-.36.92-.55,1.86-.55,2.84-.02.91.05,1.71.22,2.4.16.68.41,1.31.73,1.88.33.61.7,1.16,1.11,1.67.43.48.91.98,1.46,1.49-.59.37-1.2.83-1.82,1.36-.61.51-1.15,1.11-1.61,1.81-.5.73-.92,1.57-1.25,2.49-.3.92-.47,2.03-.5,3.33-.05,3.06.85,5.55,2.71,7.5,1.87,1.93,4.47,2.91,7.77,2.98,1.55.03,3.03-.22,4.46-.72,1.41-.52,2.83-1.41,4.2-2.65l2.34,2.75h8.75l-6.77-7.76c.53-.69.97-1.41,1.33-2.19ZM184.83,6.86c.17-.45.39-.77.62-.96.32-.24.58-.4.82-.45.22-.06.44-.1.63-.07.16,0,.4.03.67.09.3.07.57.21.82.46.26.26.48.62.63,1.08.17.48.27,1.08.25,1.82-.02.92-.2,1.76-.54,2.49-.31.74-.79,1.44-1.43,2.09-.89-.88-1.57-1.7-2.07-2.48-.49-.78-.73-1.61-.72-2.5.01-.61.11-1.14.31-1.58ZM190,29.22c-.6.21-1.31.3-2.09.28-.59,0-1.16-.13-1.73-.39-.56-.23-1.09-.61-1.53-1.1-.46-.47-.83-1.09-1.1-1.81-.28-.73-.41-1.59-.4-2.57.03-.87.17-1.68.41-2.46.27-.79.52-1.34.74-1.69l7.57,8.61c-.61.55-1.25.92-1.87,1.12Z"/>
      <path class="cls-1" d="M418.07,29.16c.24-.27.36-.62.36-1.05,0-.33-.05-.58-.18-.78-.11-.2-.3-.4-.57-.54-.23-.13-.46-.2-.69-.23-.27-.03-.56-.06-.95-.06h-2.13v5.76h1.38v-2.11h.54l1.71,2.11h1.78l-2.13-2.48c.35-.15.66-.36.89-.62ZM416.83,28.63c-.05.12-.13.21-.22.27-.12.09-.24.15-.42.18-.19.03-.37.04-.59.04h-.32v-1.62h.41c.21,0,.38,0,.51.02.15.01.25.05.35.12.12.05.21.14.27.24.03.11.05.21.05.33,0,.17-.02.31-.05.42Z"/>
      <path class="cls-1" d="M420.28,25.44c-1.15-1.14-2.53-1.7-4.15-1.7s-3.02.55-4.16,1.7c-1.15,1.13-1.72,2.49-1.72,4.06s.57,2.96,1.72,4.1c1.14,1.13,2.53,1.7,4.15,1.7s3.01-.57,4.15-1.7c1.15-1.13,1.72-2.48,1.72-4.1s-.57-2.94-1.72-4.06ZM419.36,32.73c-.88.89-1.97,1.34-3.23,1.34s-2.33-.45-3.23-1.34c-.9-.91-1.34-1.96-1.34-3.22s.45-2.3,1.34-3.2c.9-.89,1.98-1.34,3.23-1.34s2.36.45,3.23,1.34c.9.9,1.36,1.96,1.36,3.2s-.46,2.31-1.36,3.22Z"/>
      <path class="cls-1" d="M241.57,6.85c.68.31,1.01,1,1.01,1.84l-.98,10.87h-.07l-3.36-18.87h-5.88l-3.22,18.9h-.07l-1.18-10.9c0-.85.32-1.53.99-1.84V.69h-11.94v6.16c1.07.89,1.31,2.57,1.56,3.98l4.06,24.47h9.02l2.97-16.52h.06l2.71,16.52h9.18l4.05-24.47c.24-1.46.36-3.01,1.43-3.98V.69h-10.35v6.16Z"/>
      <path class="cls-1" d="M275.63,25.78l-4.47-25.09h-13.61l-4.04,24.56c-.28,1.34-.39,3.11-1.42,3.92v6.14h10.55v-6.14c-.83-.23-1.27-.93-1.27-1.89,0-.34.09-.69.17-1.01h4.6c.08.32.16.65.16,1.01,0,.91-.36,1.57-1.1,1.89v6.14h12.05v-6.14c-1.06-.36-1.41-2.3-1.61-3.39ZM262.15,19.5l1.48-10.24h.08l1.59,10.24h-3.14Z"/>
      <path class="cls-1" d="M279.68,6.85c1.12.48,1.22,1.57,1.22,3.38v15.55c0,1.28.1,2.58-1.05,3.39v6.14h11.64v-6.14c-1.14-.81-1.03-2.11-1.03-3.39v-4.4h6.08v-6.74h-6.08v-6.57c1.82-.16,2.62.2,2.97.97.39.75.29,1.98.29,3.59h8.26V.69h-22.3v6.16Z"/>
      <path class="cls-1" d="M303.92,6.85c1.12.48,1.21,1.57,1.21,3.38v15.55c0,1.28.1,2.58-1.02,3.39v6.14h11.63v-6.14c-1.14-.81-1.04-2.11-1.04-3.39v-4.4h6.09v-6.74h-6.09v-6.57c1.83-.16,2.63.2,3,.97.38.75.27,1.98.27,3.59h8.27V.69h-22.31v6.16Z"/>
      <path class="cls-1" d="M342.16,24.12c0,2.18.03,3.83-2.4,3.83h-.94V10.23c0-1.29-.11-2.58,1.04-3.38V.69h-11.63v6.16c1.14.8,1.04,2.09,1.04,3.38v15.55c0,1.28.11,2.58-1.04,3.39v6.14h22.34v-16.8h-8.42v5.62Z"/>
      <path class="cls-1" d="M354.3,6.85c1.14.8,1.04,2.09,1.04,3.38v15.55c0,1.28.1,2.58-1.04,3.39v6.14h22.98v-12.52h-8.81v1.14c-.03,2.82,0,4.04-2.87,4.04h-.58v-6.98h6.08v-6.76h-6.08v-6.16h.58c2.58,0,2.87.97,2.87,3.3v1.06h8.81V.69h-22.98v6.16Z"/>
      <path class="cls-1" d="M401.35,16.18c-1.93-1.47-5.01-2.39-7.31-3.09-.77-.24-2.14-.72-2.68-1.37-.49-.55-.56-1.25-.56-1.94,0-1.29.63-2.29,1.85-2.29,1.88,0,1.91,2.14,1.91,3.68v.63h8.91V3.65c-3.47-2.7-7.16-3.63-11.32-3.63-2.85,0-5.82.4-7.87,2.14-2.5,2.14-3.04,3.99-3.19,7.7v.77c0,7.47,3.25,9.05,9.08,10.66,2.66.72,4.63,1,4.63,4.56,0,1.25-.58,2.65-1.88,2.65-.73,0-1.41-.43-1.73-1.13-.32-.73-.3-2.26-.3-4.32h-9.34v9.28c3.12,2.8,7.24,3.64,11.14,3.64,9.14,0,11.76-4.93,11.76-11.58v-.16c0-1.63-.23-3.27-.73-4.77-.42-1.44-1.25-2.46-2.36-3.29Z"/>
      <path class="cls-1" d="M2.62,2.64C.36,4.73,0,7.77,0,10.86v12.05C0,26.7-.09,30.33,2.55,33.12c1.88,2.03,5.61,3,9.43,2.87,3.87-.12,7.85-1.37,10.32-3.67v-11.56h-9.24v3.93c0,1.42.27,3.83-1.74,3.83s-1.76-2.41-1.76-3.83v-13.36c0-1.42-.25-3.83,1.76-3.83s1.74,2.41,1.74,3.83v2.06h9.24V3.77C19.24,1.48,15.37.18,11.72.02c-3.61-.18-7.03.66-9.1,2.61Z"/>
      <path class="cls-1" d="M49.75,25.78v-1.98c0-3.51-.98-4.97-4.01-5.76v-.09c3.57-1.01,4.59-4.32,4.59-8.12,0-3.14-.86-6.09-3.37-7.76-2.07-1.4-5.05-1.38-7.41-1.38h-13.28v6.16c1.14.79,1.04,2.09,1.04,3.38v15.55c0,1.28.1,2.58-1.04,3.39v6.14h11.63v-6.14c-1.13-.81-1.03-2.1-1.03-3.39v-3.96h.38c2.62.09,2.86,1.46,2.86,4.21-.08,5.77.15,7.38.55,9.28h10.28v-6.14c-1.19-.52-1.19-2.23-1.19-3.39ZM37.84,14.91h-.97v-7.07h.97c2.08,0,2.72,1.21,2.72,3.45,0,2.41-.64,3.62-2.72,3.62Z"/>
      <path class="cls-1" d="M55.1,6.85c1.14.8,1.04,2.09,1.04,3.38v15.55c0,1.28.1,2.58-1.04,3.39v6.14h22.98v-12.52h-8.81v1.14c-.03,2.82,0,4.04-2.87,4.04h-.57v-6.98h6.05v-6.76h-6.05v-6.16h.57c2.59,0,2.87.97,2.87,3.3v1.06h8.81V.69h-22.98v6.16Z"/>
      <path class="cls-1" d="M94.55.69h-12.51v6.16c1.17.8,1.05,2.09,1.05,3.38v15.55c0,1.28.11,2.58-1.05,3.39v6.14h11.65v-6.14c-1.14-.81-1.03-2.11-1.03-3.8h3.41c7.83,0,9.77-4.06,9.77-10.65v-2.76c0-.86.5-6.4-3-9.44-2.15-1.85-5.67-1.82-8.28-1.82ZM93.55,18.05h-.89V7.93h.89c2.84,0,2.73,1.82,2.73,5.09s.11,5.04-2.73,5.04Z"/>
      <path class="cls-1" d="M108.15,6.85c1.14.8,1.04,2.09,1.04,3.38v15.55c0,1.28.1,2.58-1.04,3.39v6.14h22.99v-12.52h-8.81v1.14c-.03,2.82,0,4.04-2.86,4.04h-.58v-6.98h6.06v-6.76h-6.06v-6.16h.58c2.57,0,2.86.97,2.86,3.3v1.06h8.81V.69h-22.99v6.16Z"/>
      <path class="cls-1" d="M155.34,16.18c-1.93-1.47-5.01-2.39-7.3-3.09-.79-.24-2.16-.72-2.69-1.37-.5-.55-.57-1.25-.57-1.94,0-1.29.64-2.29,1.87-2.29,1.86,0,1.89,2.14,1.89,3.68v.63h8.9V3.65C153.97.95,150.29.02,146.14.02c-2.86,0-5.85.4-7.88,2.14-2.5,2.14-3.04,3.99-3.2,7.7v.77c0,7.47,3.26,9.05,9.08,10.66,2.65.72,4.6,1,4.6,4.56,0,1.25-.56,2.65-1.84,2.65-.73,0-1.4-.43-1.72-1.13-.32-.73-.3-2.26-.3-4.32h-9.35v9.28c3.13,2.8,7.24,3.64,11.15,3.64,9.13,0,11.74-4.93,11.74-11.58v-.16c0-1.63-.21-3.27-.71-4.77-.44-1.44-1.27-2.46-2.37-3.29Z"/>
    </g>
  </g>
</svg>
